<mxfile host="app.diagrams.net" modified="2023-05-27T21:37:17.981Z" agent="Mozilla/5.0 (Windows NT 10.0; Win64; x64) AppleWebKit/537.36 (KHTML, like Gecko) Chrome/113.0.0.0 Safari/537.36" version="21.2.2" etag="ObavHKUXv5_WaJrjgD2l" type="github">
  <diagram name="Page-1" id="vWdO5PznI7Ud6UQrkPrn">
    <mxGraphModel>
      <root>
        <mxCell id="0" />
        <mxCell id="1" parent="0" />
      </root>
    </mxGraphModel>
  </diagram>
</mxfile>
